<?xml version="1.0" encoding="UTF-8"?>
<svg width="70px" height="50px" viewBox="0 0 70 50" version="1.1" xmlns="http://www.w3.org/2000/svg" xmlns:xlink="http://www.w3.org/1999/xlink">
    <!-- Generator: Sketch 48.2 (47327) - http://www.bohemiancoding.com/sketch -->
    <title>bed</title>
    <desc>Created with Sketch.</desc>
    <defs></defs>
    <g id="Website" stroke="none" stroke-width="1" fill="none" fill-rule="evenodd">
        <path d="M67.5,30 C65,30 65,30 65,27.5 L65,20.5 L5,20.5 L5,47.5 C5,50 5,50 2.5,50 C0,50 0,50 0,47.5 L0,2.5 C0,0 0,0 2.5,0 C5,0 5,0 5,2.5 L5,10 L65,10 L65,2.5 C65,0 65,0 67.5,0 C70,0 70,0 70,2.5 L70,27.5 C70,30 70,30 67.5,30 Z M14.65,29.1 C18.3,29.1 20.9,31.7 20.9,35.35 C20.9,38.95 18.3,41.6 14.65,41.6 C11.05,41.6 8.4,38.95 8.4,35.35 C8.4,31.7 11.05,29.1 14.65,29.1 Z M62.5,27.75 C62.5,34.8 54.9,40 44.05,40 L36.9,40 C24.7,40 20.4,26.3 19,23 L62.5,23 L62.5,27.75 Z" id="bed" fill="#F27935" fill-rule="nonzero" transform="translate(35.000000, 25.000000) scale(-1, 1) rotate(-180.000000) translate(-35.000000, -25.000000) "></path>
    </g>
</svg>