<?xml version="1.0" encoding="UTF-8"?>
<svg width="25px" height="60px" viewBox="0 0 25 60" version="1.1" xmlns="http://www.w3.org/2000/svg" xmlns:xlink="http://www.w3.org/1999/xlink">
    <!-- Generator: Sketch 48.2 (47327) - http://www.bohemiancoding.com/sketch -->
    <title>person</title>
    <desc>Created with Sketch.</desc>
    <defs></defs>
    <g id="Website" stroke="none" stroke-width="1" fill="none" fill-rule="evenodd">
        <path d="M12.5010727,49.975 C15.4510727,49.975 17.4510727,52.025 17.4510727,55.075 C17.4510727,58.025 15.4510727,59.975 12.5010727,59.975 C9.45107274,59.975 7.45107274,58.025 7.45107274,55.075 C7.45107274,52.025 9.45107274,49.975 12.5010727,49.975 Z M5.80107274,0.075 C5.80107274,-0.025 19.0510727,-0.025 19.0510727,0.075 C19.8010727,8.125 20.0010727,16.125 20.2510727,23.675 C23.0010727,24.125 24.9510727,24.625 24.9010727,25.575 L24.0510727,36.975 C23.6010727,42.975 19.9510727,46.975 12.2010727,46.975 C4.75107274,46.975 1.30107274,42.975 0.851072744,36.975 L0.00107274415,25.575 C-0.0489272558,24.675 1.65107274,24.025 4.65107274,23.675 C4.85107274,16.125 5.10107274,8.125 5.80107274,0.075 Z" id="person" fill="#F27935" fill-rule="nonzero" transform="translate(12.451006, 29.987500) scale(-1, 1) rotate(-180.000000) translate(-12.451006, -29.987500) "></path>
    </g>
</svg>