<?xml version="1.0" encoding="UTF-8"?>
<svg width="55px" height="48px" viewBox="0 0 55 48" version="1.1" xmlns="http://www.w3.org/2000/svg" xmlns:xlink="http://www.w3.org/1999/xlink">
    <!-- Generator: Sketch 47.1 (45422) - http://www.bohemiancoding.com/sketch -->
    <title>adrimaris-logo</title>
    <desc>Created with Sketch.</desc>
    <defs></defs>
    <g id="Page-1" stroke="none" stroke-width="1" fill="none" fill-rule="evenodd">
        <g id="adrimaris-logo" fill="#FFFFFF">
            <path d="M4.76149031,44.342621 L3.6266012,41.4019973 C3.59297469,41.3145683 3.55766738,41.2128497 3.52067822,41.0968382 C3.48368905,40.9808267 3.44838175,40.8572511 3.41475523,40.7261078 C3.34413956,40.9984825 3.27184364,41.2254581 3.19786531,41.4070412 L2.0629762,44.342621 L4.76149031,44.342621 Z M6.79924676,47.0260033 L6.04265402,47.0260033 C5.95522509,47.0260033 5.88461047,47.0041464 5.83080805,46.9604319 C5.77700563,46.9167175 5.73665442,46.8612346 5.70975321,46.7939815 L5.0338637,45.0487743 L1.79060282,45.0487743 L1.1147133,46.7939815 C1.0945374,46.8545092 1.05586749,46.9083109 0.998702417,46.955388 C0.941537346,47.0024651 0.87092273,47.0260033 0.78685645,47.0260033 L0.0302637096,47.0260033 L2.92044798,39.7980207 L3.90906249,39.7980207 L6.79924676,47.0260033 Z M14.0171415,43.414534 C14.0171415,43.9559208 13.9313952,44.4485418 13.7599,44.8924118 C13.5884048,45.3362817 13.3462975,45.7162556 13.0335709,46.0323448 C12.7208444,46.348434 12.3450737,46.5930633 11.9062478,46.7662398 C11.4674218,46.9394163 10.9823666,47.0260033 10.4510677,47.0260033 L7.75255361,47.0260033 L7.75255361,39.7980207 L10.4510677,39.7980207 C10.9823666,39.7980207 11.4674218,39.8846076 11.9062478,40.0577842 C12.3450737,40.2309607 12.7208444,40.4764306 13.0335709,40.7942011 C13.3462975,41.1119716 13.5884048,41.4927862 13.7599,41.9366561 C13.9313952,42.3805261 14.0171415,42.8731471 14.0171415,43.414534 Z M13.0133951,43.414534 C13.0133951,42.970664 12.9528683,42.5738771 12.8318129,42.2241614 C12.7107574,41.8744457 12.5392648,41.5785368 12.3173298,41.3364259 C12.0953948,41.094315 11.8263868,40.909372 11.5102976,40.7815912 C11.1942083,40.6538105 10.8411353,40.5899211 10.4510677,40.5899211 L8.73108022,40.5899211 L8.73108022,46.2341029 L10.4510677,46.2341029 C10.8411353,46.2341029 11.1942083,46.1702135 11.5102976,46.0424327 C11.8263868,45.914652 12.0953948,45.7305496 12.3173298,45.49012 C12.5392648,45.2496905 12.7107574,44.9546223 12.8318129,44.6049065 C12.9528683,44.2551908 13.0133951,43.8584039 13.0133951,43.414534 Z M17.4268528,43.2985231 C17.7093155,43.2985231 17.9589886,43.2640564 18.1758796,43.1951221 C18.3927706,43.1261877 18.574351,43.0286723 18.7206264,42.9025729 C18.8669017,42.7764734 18.9770269,42.6259971 19.0510052,42.4511392 C19.1249835,42.2762813 19.1619721,42.0829318 19.1619721,41.8710848 C19.1619721,41.4406654 19.0207429,41.1161744 18.7382802,40.8976021 C18.4558175,40.6790298 18.0321298,40.5697453 17.4672044,40.5697453 L16.3978867,40.5697453 L16.3978867,43.2985231 L17.4268528,43.2985231 Z M20.7659487,47.0260033 L19.8983891,47.0260033 C19.7201685,47.0260033 19.5890271,46.95707 19.5049608,46.8192013 L17.6286108,44.2366981 C17.5714458,44.1559944 17.5100783,44.0979896 17.4445066,44.0626817 C17.3789349,44.0273739 17.2772162,44.0097202 17.1393475,44.0097202 L16.3978867,44.0097202 L16.3978867,47.0260033 L15.424404,47.0260033 L15.424404,39.7980207 L17.4672044,39.7980207 C17.924525,39.7980207 18.3196305,39.8442564 18.652533,39.9367293 C18.9854355,40.0292022 19.2603281,40.1628656 19.4772191,40.3377235 C19.6941101,40.5125813 19.8546743,40.7235845 19.9589165,40.9707394 C20.0631587,41.2178943 20.115279,41.4944682 20.115279,41.8004694 C20.115279,42.0560309 20.0749278,42.2947756 19.9942241,42.5167106 C19.9135205,42.7386455 19.7966701,42.9378796 19.6436695,43.1144188 C19.4906689,43.290958 19.3040445,43.4414344 19.0837909,43.5658525 C18.8635372,43.6902706 18.6138641,43.7844234 18.3347641,43.8483138 C18.4591822,43.9189295 18.5667854,44.0214888 18.657577,44.1559948 L20.7659487,47.0260033 Z M22.723002,47.0260033 L21.7444753,47.0260033 L21.7444753,39.7980207 L22.723002,39.7980207 L22.723002,47.0260033 Z M32.0896201,39.7980207 L32.0896201,47.0260033 L31.2321483,47.0260033 L31.2321483,41.7147223 C31.2321483,41.6441066 31.2346703,41.5684481 31.2397142,41.4877444 C31.2447582,41.4070408 31.2506428,41.3246571 31.2573681,41.2405908 L28.7757439,45.7599714 C28.6984029,45.9112908 28.5807119,45.9869493 28.4226673,45.9869493 L28.2814366,45.9869493 C28.123392,45.9869493 28.005701,45.9112908 27.92836,45.7599714 L25.3962963,41.220415 C25.4164722,41.3986355 25.42656,41.563403 25.42656,41.7147223 L25.42656,47.0260033 L24.5690882,47.0260033 L24.5690882,39.7980207 L25.2903733,39.7980207 C25.3778023,39.7980207 25.4450543,39.8064272 25.4921314,39.8232404 C25.5392085,39.8400537 25.5846036,39.8871301 25.6283181,39.9644711 L28.1250741,44.4132364 C28.1654259,44.49394 28.2049365,44.578005 28.243607,44.665434 C28.2822775,44.7528629 28.3184254,44.8419718 28.3520519,44.9327634 C28.3856785,44.8419718 28.4209858,44.7520222 28.4579749,44.662912 C28.4949641,44.5738017 28.5353153,44.488896 28.5790298,44.4081924 L31.0303902,39.9644711 C31.0707421,39.8871301 31.1152965,39.8400537 31.164055,39.8232404 C31.2128134,39.8064272 31.2809061,39.7980207 31.368335,39.7980207 L32.0896201,39.7980207 Z M37.7741535,44.342621 L36.6392644,41.4019973 C36.6056379,41.3145683 36.5703306,41.2128497 36.5333414,41.0968382 C36.4963523,40.9808267 36.461045,40.8572511 36.4274185,40.7261078 C36.3568028,40.9984825 36.2845069,41.2254581 36.2105285,41.4070412 L35.0756394,44.342621 L37.7741535,44.342621 Z M39.81191,47.0260033 L39.0553172,47.0260033 C38.9678883,47.0260033 38.8972737,47.0041464 38.8434713,46.9604319 C38.7896689,46.9167175 38.7493176,46.8612346 38.7224164,46.7939815 L38.0465269,45.0487743 L34.803266,45.0487743 L34.1273765,46.7939815 C34.1072006,46.8545092 34.0685307,46.9083109 34.0113656,46.955388 C33.9542006,47.0024651 33.883586,47.0260033 33.7995197,47.0260033 L33.0429269,47.0260033 L35.9331112,39.7980207 L36.9217257,39.7980207 L39.81191,47.0260033 Z M42.7676656,43.2985231 C43.0501283,43.2985231 43.2998014,43.2640564 43.5166924,43.1951221 C43.7335834,43.1261877 43.9151639,43.0286723 44.0614392,42.9025729 C44.2077145,42.7764734 44.3178397,42.6259971 44.391818,42.4511392 C44.4657964,42.2762813 44.502785,42.0829318 44.502785,41.8710848 C44.502785,41.4406654 44.3615557,41.1161744 44.079093,40.8976021 C43.7966303,40.6790298 43.3729426,40.5697453 42.8080172,40.5697453 L41.7386995,40.5697453 L41.7386995,43.2985231 L42.7676656,43.2985231 Z M46.1067616,47.0260033 L45.2392019,47.0260033 C45.0609814,47.0260033 44.92984,46.95707 44.8457737,46.8192013 L42.9694237,44.2366981 C42.9122586,44.1559944 42.8508911,44.0979896 42.7853194,44.0626817 C42.7197477,44.0273739 42.6180291,44.0097202 42.4801604,44.0097202 L41.7386995,44.0097202 L41.7386995,47.0260033 L40.7652168,47.0260033 L40.7652168,39.7980207 L42.8080172,39.7980207 C43.2653378,39.7980207 43.6604434,39.8442564 43.9933459,39.9367293 C44.3262483,40.0292022 44.6011409,40.1628656 44.8180319,40.3377235 C45.0349229,40.5125813 45.1954871,40.7235845 45.2997293,40.9707394 C45.4039715,41.2178943 45.4560918,41.4944682 45.4560918,41.8004694 C45.4560918,42.0560309 45.4157406,42.2947756 45.335037,42.5167106 C45.2543334,42.7386455 45.137483,42.9378796 44.9844823,43.1144188 C44.8314817,43.290958 44.6448574,43.4414344 44.4246037,43.5658525 C44.2043501,43.6902706 43.954677,43.7844234 43.6755769,43.8483138 C43.799995,43.9189295 43.9075982,44.0214888 43.9983898,44.1559948 L46.1067616,47.0260033 Z M48.0638148,47.0260033 L47.0852882,47.0260033 L47.0852882,39.7980207 L48.0638148,39.7980207 L48.0638148,47.0260033 Z M53.6071176,40.9278658 C53.5768537,40.9783056 53.5440684,41.0161348 53.5087605,41.0413547 C53.4734527,41.0665746 53.4305796,41.0791844 53.3801398,41.0791844 C53.3229747,41.0791844 53.2557227,41.0506023 53.1783817,40.9934372 C53.1010407,40.9362721 53.004366,40.8732234 52.8883545,40.804289 C52.772343,40.7353547 52.6327951,40.6723059 52.4697065,40.6151408 C52.3066179,40.5579757 52.1090651,40.5293936 51.8770422,40.5293936 C51.6584699,40.5293936 51.465961,40.5588164 51.2995097,40.6176628 C51.1330585,40.6765092 50.9935106,40.756371 50.8808618,40.8572505 C50.7682129,40.95813 50.6833073,41.0766617 50.6261422,41.2128491 C50.5689771,41.3490365 50.540395,41.4961502 50.540395,41.6541948 C50.540395,41.8559539 50.5899934,42.0232433 50.6891916,42.156068 C50.7883898,42.2888928 50.9195312,42.4023805 51.0826198,42.4965348 C51.2457084,42.590689 51.4306515,42.6722321 51.6374545,42.7411664 C51.8442576,42.8101008 52.0561014,42.881556 52.2729924,42.9555344 C52.4898834,43.0295127 52.7017273,43.1127371 52.9085303,43.20521 C53.1153334,43.2976829 53.3002764,43.4145332 53.463365,43.5557646 C53.6264536,43.696996 53.757595,43.8701699 53.8567932,44.0752916 C53.9559914,44.2804133 54.0055898,44.5326084 54.0055898,44.8318844 C54.0055898,45.1479736 53.9517882,45.4447231 53.8441833,45.7221418 C53.7365785,45.9995605 53.5793769,46.2408271 53.3725739,46.4459489 C53.1657708,46.6510706 52.9118944,46.8124754 52.6109372,46.9301682 C52.3099799,47.047861 51.9678353,47.1067065 51.584493,47.1067065 C51.1137218,47.1067065 50.6866715,47.0218009 50.3033293,46.851987 C49.9199871,46.6821731 49.5921335,46.4526756 49.3197587,46.1634876 L49.60222,45.699444 C49.6291212,45.6624549 49.6619066,45.6313508 49.7005771,45.6061309 C49.7392476,45.580911 49.7821207,45.5683013 49.8291979,45.5683013 C49.8729123,45.5683013 49.9225107,45.5859549 49.9779944,45.6212628 C50.0334782,45.6565706 50.0965269,45.7011251 50.1671426,45.7549275 C50.2377583,45.8087299 50.3184607,45.8675754 50.4092523,45.9314658 C50.5000439,45.9953562 50.6034438,46.0542017 50.7194553,46.1080041 C50.8354668,46.1618065 50.9674489,46.206361 51.1154055,46.2416688 C51.2633622,46.2769767 51.4298109,46.2946303 51.6147567,46.2946303 C51.8467797,46.2946303 52.0535796,46.2626856 52.2351628,46.1987952 C52.4167459,46.1349049 52.5705849,46.0449553 52.6966843,45.9289438 C52.8227838,45.8129324 52.9194585,45.6742251 52.9867116,45.5128178 C53.0539646,45.3514106 53.0875906,45.1715114 53.0875906,44.973115 C53.0875906,44.7545427 53.0379922,44.5754842 52.938794,44.4359342 C52.8395958,44.2963841 52.709295,44.1795338 52.5478878,44.0853795 C52.3864805,43.9912253 52.2015375,43.9113635 51.9930531,43.8457918 C51.7845687,43.7802201 51.5727249,43.7129681 51.3575152,43.6440338 C51.1423055,43.5750994 50.9304617,43.4952376 50.7219773,43.4044461 C50.5134929,43.3136545 50.3285499,43.1959634 50.1671426,43.0513694 C50.0057354,42.9067754 49.8754346,42.7260356 49.7762364,42.5091446 C49.6770382,42.2922536 49.6274398,42.0240862 49.6274398,41.7046344 C49.6274398,41.4490729 49.6770382,41.2019217 49.7762364,40.9631735 C49.8754346,40.7244252 50.0200264,40.5125814 50.2100162,40.3276356 C50.400006,40.1426898 50.6337067,39.9947353 50.9111255,39.8837678 C51.1885442,39.7728003 51.5071506,39.7173174 51.8669543,39.7173174 C52.2704724,39.7173174 52.6378366,39.7812068 52.9690577,39.9089876 C53.3002789,40.0367683 53.5919845,40.2217114 53.8441833,40.4638223 L53.6071176,40.9278658 Z" id="ADRIMARIS"></path>
            <g id="Group-3" fill-rule="nonzero">
                <path d="M18.2120675,6.35112898 C20.532643,2.29579416 23.5782052,0.182064244 27.3487539,0.00993921973 C33.3654798,-0.264723474 36.1003552,5.2285304 36.1003552,7.15116926 C36.1003552,8.4329285 36.1003552,16.8564153 36.1003552,32.4216298 L30.3571169,32.4216298 L30.3571169,10.1724589 C29.9924668,6.32718118 28.3515416,4.12987963 25.4343412,3.58055424 C22.1188701,2.95623222 19.4314182,5.80085828 18.3236651,7.81347303 C18.3236651,10.3294268 18.3236651,18.5321458 18.3236651,32.4216298 L12.5804268,32.4216298 L12.5804268,10.1724589 C12.2157768,6.32718118 10.5748515,4.12987963 7.6576511,3.58055424 C3.28185047,2.75656616 4.75256472e-17,7.97515734 0,9.34847081 L0,7.15116926 C2.37022534,2.5734577 5.5609133,0.193047682 9.57206388,0.00993921973 C14.8897803,-0.232813793 17.6439061,4.02999422 18.2120675,6.35112898 Z M36.1003552,7.15116926 C38.4705805,2.5734577 41.6612685,0.193047682 45.6724191,0.00993921973 C51.6891449,-0.264723474 54.4240203,5.2285304 54.4240203,7.15116926 C54.4240203,8.4329285 54.4240203,16.8564153 54.4240203,32.4216298 L48.680782,32.4216298 L48.680782,10.1724589 C48.316132,6.32718118 46.6752067,4.12987963 43.7580063,3.58055424 C39.3822057,2.75656616 36.1003552,7.97515734 36.1003552,9.34847081 L36.1003552,7.15116926 Z" id="Combined-Shape-Copy"></path>
                <ellipse id="Oval-2" cx="5.60649456" cy="26.7890585" rx="5.60649456" ry="5.63257128"></ellipse>
            </g>
        </g>
    </g>
</svg>