<?xml version="1.0" encoding="UTF-8"?>
<svg width="30px" height="43px" viewBox="0 0 30 43" version="1.1" xmlns="http://www.w3.org/2000/svg" xmlns:xlink="http://www.w3.org/1999/xlink">
    <!-- Generator: Sketch 48.2 (47327) - http://www.bohemiancoding.com/sketch -->
    <title>marker</title>
    <desc>Created with Sketch.</desc>
    <defs>
        <path d="M15,3.18041237 C9.02333333,3.18041237 4.18333333,7.94329897 4.18333333,13.8247423 C4.18333333,15.5927835 4.62333333,17.2525773 5.39333333,18.7319588 C5.76,19.4536082 6.38333333,20.2474227 6.49333333,20.4639175 C6.64,20.6804124 7.96,22.556701 7.96,22.556701 C10.6,26.3453608 12.6166667,30.5670103 13.9366667,35.0051546 L14.6333333,37.1340206 C14.6822848,37.2785353 14.8045071,37.5671951 15,38 C15.1956182,37.5668255 15.3178404,37.2781657 15.3666667,37.1340206 L16.1,35.0051546 C17.3833333,30.5670103 19.4,26.3814433 22.0766667,22.556701 L23.7633333,20.1030928 C24.0933333,19.6340206 24.4966667,18.9484536 24.6433333,18.7319588 C25.4133333,17.2525773 25.8533333,15.5927835 25.8533333,13.8247423 C25.8166667,7.94329897 20.9766667,3.18041237 15,3.18041237 Z M14.9633333,17.5773196 C12.8733333,17.5773196 11.1866667,15.9175258 11.1866667,13.8608247 C11.1866667,11.8041237 12.8733333,10.1443299 14.9633333,10.1443299 C17.0533333,10.1443299 18.74,11.8041237 18.74,13.8608247 C18.74,15.9175258 17.0533333,17.5773196 14.9633333,17.5773196 Z" id="path-1"></path>
        <filter x="-30.7%" y="-15.4%" width="161.4%" height="138.2%" filterUnits="objectBoundingBox" id="filter-2">
            <feOffset dx="0" dy="1.3" in="SourceAlpha" result="shadowOffsetOuter1"></feOffset>
            <feGaussianBlur stdDeviation="2" in="shadowOffsetOuter1" result="shadowBlurOuter1"></feGaussianBlur>
            <feColorMatrix values="0 0 0 0 0.0666666667   0 0 0 0 0.117647059   0 0 0 0 0.164705882  0 0 0 0.5 0" type="matrix" in="shadowBlurOuter1"></feColorMatrix>
        </filter>
    </defs>
    <g id="Logo-&amp;-Colors" stroke="none" stroke-width="1" fill="none" fill-rule="evenodd">
        <g id="marker" fill-rule="nonzero">
            <use fill="black" fill-opacity="1" filter="url(#filter-2)" xlink:href="#path-1"></use>
            <use fill="#F27935" fill-rule="evenodd" xlink:href="#path-1"></use>
        </g>
    </g>
</svg>